<?xml version="1.0" encoding="utf-8"?>
<!-- Generator: Adobe Illustrator 21.0.0, SVG Export Plug-In . SVG Version: 6.00 Build 0)  -->
<svg version="1.1" id="Layer_1" xmlns="http://www.w3.org/2000/svg" xmlns:xlink="http://www.w3.org/1999/xlink" x="0px" y="0px"
	 viewBox="0 0 750 472.7" style="enable-background:new 0 0 750 472.7;" xml:space="preserve">
<style type="text/css">
	.st0{
		stroke:white;
		stroke-width:1.881;
		stroke-dasharray: 1000;
  		stroke-dashoffset: 1000;
  		animation: dash 5s linear alternate;
  		fill:rgba(255, 255, 255, 0.31);
	}
	@keyframes dash {
	  from {
	    stroke-dashoffset: 1000;
	  }
	  to {
	    stroke-dashoffset: 0;
	  }
	}
</style>
<polyline id="polyline10" class="st0" points="549.5,367.3 522.3,366.3 510.2,366.3 511.3,375.1 505.9,375.5 505.9,371.1 503,369.6 
	501.9,376 497.4,375.7 495.8,363.5 496.3,296.9 532.3,293.6 545.6,339.1 543.4,348 546.7,353.5 545.6,360.7 548.9,365.7 
	549.5,367.3 "/>
<polyline id="polyline32" class="st0" points="111.7,272.6 110.9,275.9 113.7,279.2 114.8,284.1 115.9,286.9 114.2,291.4 
	108.2,295.3 108.7,296.9 106,300.8 105.4,303.6 105.4,311.3 105.4,318.5 125.3,332.7 135.3,339.4 147.4,347.7 183.9,351.7 
	199.3,252.9 126.8,240.8 123.7,257 121.5,259.2 117.6,256 114.2,258.7 113.1,271.9 111.7,272.6 "/>
<polyline id="polyline34" class="st0" points="470.8,281.9 464.1,283.1 461.4,280.8 463.1,278.1 464.7,271.9 401,274.7 403.3,326.3 
	407.2,326.5 408.8,336.9 452.6,335.2 453.1,333.5 452.6,327.4 453.1,321.3 457,314.7 461.9,308.5 459.7,303 464.1,299.7 
	465.2,296.3 469.2,292.5 471.4,284.1 470.8,281.9 "/>
<polyline id="polyline36" class="st0" points="105.4,311.3 105.4,303.6 106,300.8 108.7,296.9 108.2,295.3 114.2,291.4 115.9,286.9 
	114.8,284.1 113.7,279.2 110.9,275.9 113,271.7 77.7,219.8 56.6,185.4 70.1,135.2 16.7,121.5 14.3,123.1 15.5,126.4 15.5,128.6 
	8.2,140.8 5.5,145.3 5.5,152 8.2,155.3 8.8,165.8 7.7,174.6 9.3,181.9 12.7,187.4 13.3,196.3 18.8,196.3 19.3,194.1 22.1,195.2 
	22.1,197.4 19.9,198.6 19.3,201.3 19.3,203.5 17.1,203 14.3,206.8 17.7,210.8 21,218.5 19.3,221.8 17.1,224 21,234 23.2,238.5 
	25.9,245.6 28.7,251.7 28.7,257.3 27.7,261.7 27,262.9 32,264.5 34.8,267.8 38.1,267.3 40.9,267.8 43.6,270 44.8,272.9 45.8,276.1 
	50.3,276.7 54.2,278.9 55.8,281.1 58.6,285.1 60.8,288.3 63,291.7 66.4,292.2 66.9,293.3 68,296.7 68.6,302.2 69.1,306.6 
	72.4,309.5 75.8,309.9 79.1,310.5 89,312.8 96.3,313.9 101.2,313.3 105.4,311.3 "/>
<polyline id="polyline38" class="st0" points="207.4,181 272.9,188.2 299.8,190.5 295.8,261.6 280.9,261.2 199.5,253.1 207.4,181 
	"/>
<polyline id="polyline40" class="st0" points="698.4,143.3 698.4,133.9 675.5,141.8 675.4,156.4 674.6,167 677.4,159.1 679.6,155.3 
	687.9,148.6 692.9,147.5 697.8,146.4 698.4,143.3 "/>
<polyline id="polyline42" class="st0" points="675,201.4 670.4,201.9 664.6,197.8 663.2,192.3 660.2,183.2 654,184.7 659.1,206 
	670.8,206 675,201.4 "/>
<polyline id="polyline44" class="st0" points="541.7,381.5 535.1,378.7 529,374.9 522.9,374.3 516.2,378.2 511.6,378.2 511.3,375.1 
	510.2,366.3 522.3,366.3 549.3,367.3 549.8,371.1 591.4,370.9 592.7,372.3 595.1,372.3 593.7,359.6 604.2,360.9 606.5,368.7 
	612,378.7 615.4,386.5 624.2,400.9 627.6,409.2 634.2,419.2 638,424.8 638.6,438.6 636.9,445.8 635.8,449.2 635.3,451.9 
	629.8,455.8 625.8,455.8 623.1,453.6 621.4,450.3 618.1,447 613.2,442.5 607.7,439.2 607.7,435.3 604.8,432 604.8,427 601,428.1 
	596.5,424.2 593.7,420.8 594.3,417.5 595.5,414.2 594.8,409.2 592.7,410.4 591,413.1 590.5,404.3 591,397.6 589.9,392.1 
	583.8,388.2 577.7,384.3 572.7,381.5 566.7,378.7 560,376 557.8,379.3 554.5,382.7 548.9,382.1 541.7,381.5 "/>
<polyline id="polyline46" class="st0" points="602.6,331.9 599.8,328 595.5,321.3 587.7,311.3 581.6,310.8 573.8,300.8 571.1,298.1 
	567.2,297.5 564.5,294.7 566.7,289.7 548.9,291.9 532.3,293.6 545.6,339.1 543.4,348 546.7,353.5 545.7,360.6 548.7,364.5 
	550.1,371.5 550.7,371.1 591.5,370.9 593,372.4 594.9,372.4 593.7,359.6 604.3,361 602.6,356.5 603.7,345.5 605.9,344.3 607,342.1 
	603.7,341.6 614.3,333.9 608,330.8 602.6,331.9 "/>
<polyline id="polyline62" class="st0" points="189.9,114.4 185.7,112.3 181.8,112.3 177.9,113.4 172.9,114.4 165.2,113.4 
	166.3,108.9 163,105.6 161.8,101.2 158.6,97.3 159.1,94 158,87.9 156.3,89 153.6,89.6 151.4,91.2 150.8,87.9 151.9,79.6 155.8,71.2 
	154.1,69.6 152.5,69 149.7,66.3 148.6,61.9 145.8,57.4 142.5,54.1 141.4,48.5 141.9,38.5 142.6,25.5 133,23.5 128,47.5 124.8,61.7 
	121.8,72.7 105.4,143.3 143.8,153 182.5,160 189.9,114.4 "/>
<polyline id="polyline64" class="st0" points="497.4,243.7 493.5,246.5 492.9,250.4 489.7,252 489.1,255.4 485,259.1 479.4,263.8 
	476.3,261.5 471.9,257.6 473,256.4 474.1,253.1 469.2,249.3 464.7,246 460.3,240.4 460.3,236 461.9,232.6 461.4,228.7 454.8,228.2 
	448.7,221.6 444.8,216.5 443.1,211 441,203.4 447,199.9 445.9,192.7 448.1,190.5 444.8,186.6 447.5,184.4 452.6,182.1 455.9,178.3 
	458.1,173.8 455.9,170.5 452,165 449.7,161 488.5,160 489.7,167.5 494.1,175.2 495.2,177.7 496.3,194.3 496.9,209.4 497.4,218.2 
	494.7,223.8 495.8,227.1 496.9,231 494.1,236.5 498.5,237.1 500.7,242.6 497.4,243.7 "/>
<polyline id="polyline66" class="st0" points="494.1,175.2 497.4,176.4 502.4,174.6 504.1,169.7 529,170.5 536.7,213.8 536.7,218.8 
	533.4,221 530.1,226 527.9,229.3 524,229.8 522.9,238.2 519,240.4 516.2,237.6 511.3,239.8 509.1,242 500.7,242.6 498.5,237.1 
	494.1,236.5 496.9,231 495.8,227.1 494.7,223.8 497.4,218.2 496.9,209.4 496.3,194.3 495.2,177.7 494.1,175.2 "/>
<polyline id="polyline68" class="st0" points="382.2,196.6 378.4,171.6 374.5,164.4 372.8,148.3 375.2,146.6 442.2,147.8 
	448.7,158.8 452,165 455.9,170.5 458.1,173.8 455.9,178.3 452.6,182.1 447.5,184.4 444.8,186.6 448.1,190.5 445.9,192.7 447,199.9 
	440.8,203.4 439.8,201.6 437.1,197.6 429.8,199.9 383.9,201.6 382.2,196.6 "/>
<polyline id="polyline70" class="st0" points="400.8,226.9 399.4,226 395,217.6 397.6,215.4 397.2,212.7 298.7,208.8 295.9,261.5 
	400.8,265.3 401,229.6 400.8,226.9 "/>
<polyline id="polyline72" class="st0" points="558.9,258.2 563.3,254.2 568.3,252.6 568.9,248.7 574.9,243.2 572.2,236 568.7,226.4 
	566.1,223.8 560.5,222.6 553.4,224.3 543.4,222 539.5,218.8 536.7,218.8 533.4,221 530.1,226 527.9,229.3 524,229.8 522.9,238.2 
	519,240.4 516.2,237.6 511.3,239.8 509.1,242 507.3,242 497.4,243.7 493.5,246.5 492.9,250.4 489.7,252 489.1,255.4 482.5,261.3 
	479.5,263.7 476.7,269.2 484.7,271.9 491.9,268.2 498,267.6 519.5,264.8 557.8,260.4 558.9,258.2 "/>
<polyline id="polyline74" class="st0" points="478.1,379.5 476.3,371.3 473.6,371.3 448.7,371.3 447.5,363.5 451.5,357.9 
	452.6,354.1 458.1,350.2 455.3,344.7 452.6,335.2 408.8,336.9 409.4,341.3 409.4,354.6 415,361.3 417.7,367.9 418.8,374.6 
	417.2,380.7 413.8,386.2 413.8,390.1 414.4,394 420.5,391.5 426.6,394.9 435.4,396 443.1,394.9 450.9,394.3 450.9,397.6 
	456.4,399.8 463.1,404.3 464.7,400.4 469.7,400.9 471.9,399.3 474.7,398.7 482.5,400.9 485.8,404.9 488,403.1 489.1,399.8 
	486.9,399.3 483.6,396 479.7,393.7 481.9,390.4 484.7,388.7 484.7,384.9 481.4,386 478.5,390.9 477.5,388.7 478.5,384.9 
	476.3,383.8 473.6,385.4 467.5,383.8 474.7,381.5 481.4,382.7 478.1,379.5 "/>
<polyline id="polyline76" class="st0" points="705.1,110.1 692.3,76.8 693.4,74.9 695.6,67.7 696.8,58.8 695.6,47.1 700,43.3 
	699.6,31.1 704,28.9 708.9,33.3 714.4,29.4 718.4,28.3 722.8,34.4 725.6,44.9 726.1,52.7 726.6,58.2 728.8,61 733.3,58.8 735,62.7 
	739.4,68.2 742.8,69.3 744.4,71.5 741.6,73.7 736.6,73.7 729.4,80.4 728.4,77.7 727.2,81 722.8,80.4 723.3,86.5 719.5,90.4 
	712.8,97.6 708.4,104.3 706.7,113.6 705.1,110.1 "/>
<polyline id="polyline78" class="st0" points="640.3,199 643.6,205.2 642.6,215.2 655.8,224 656.8,223 655.8,220.2 649.1,214.6 
	655.2,216.8 651.3,213 651.3,208 650.2,201.3 649.7,195.2 651.3,195.2 652.4,201.9 654.1,206.3 653.6,211.8 656.8,210.8 659.1,213 
	663,217.4 662.4,221.8 661.9,230.7 664.1,228.5 666.8,222.4 667.4,215.7 670.8,209 670.8,206 659.1,206 653.6,184.6 607,194.1 
	607,202.7 624.7,194.1 626.2,196.8 632.4,201.2 636.4,202.7 640.3,199 "/>
<polyline id="polyline80" class="st0" points="706.7,120 685.6,121.7 675.2,122.7 675.7,141.7 698.4,133.9 703.2,135.4 705.6,137.5 
	711.2,139.8 713.4,137.5 717.8,137.5 722.8,135.3 722.8,132.5 718.9,128 721.1,130.9 720,134.2 715.6,133.6 714,131.4 710,127 
	707.8,120.3 706.7,120 "/>
<polyline id="polyline82" class="st0" points="454.8,91.2 469.7,94.5 481.9,100.1 485.8,110.1 485.2,120.3 488,113.6 490.2,106.5 
	492.5,100.4 495.2,99.9 498.5,103.7 500.2,99.9 506.3,98.1 510.2,94.8 515.7,94.3 523.5,97.7 528.2,93.9 535.1,93.7 537.3,92.1 
	533.9,91.5 529.5,91.5 526.2,88.7 524,87.1 518.5,86.5 517.9,83.2 514.6,81.5 512.9,81.5 506.9,82.6 504.1,83.7 500.2,85.4 
	496.3,87.7 492.5,87.7 486.9,87.7 483,83.2 480.8,83.2 475.8,83.7 474.1,81.5 475.3,77.7 478.5,75.5 478.5,72.1 474.7,73.7 
	468.1,79.3 462.5,84.9 457,88.1 451.5,89.3 454.8,91.2 "/>
<polyline id="polyline84" class="st0" points="528.9,170.4 504.1,169.7 507.3,162 507.3,154.7 505.1,144.2 501.8,135.8 504.1,127 
	507.9,117.6 511.8,112.1 513.5,113.6 517.3,108.1 520.1,102.1 523.5,99.3 529,99.9 533.4,103.2 539,105.4 541.7,106.5 542.3,114.3 
	542.8,120.9 540.6,125.8 538.4,130.9 538.4,135.3 541.2,135.8 542.3,133.1 542.8,129.8 546.7,127.6 551.7,125.8 553.4,127 
	554.5,132 556.7,135.8 558.3,139.2 560,143.1 555,148 553.9,153 551.1,155.3 550.1,161.4 546.7,166.4 547.3,169.7 543.7,168.7 
	528.9,170.4 "/>
<polyline id="polyline86" class="st0" points="375,144.4 374.5,117.8 370.6,113.4 371.2,108.4 374,104 372.8,98.5 371.2,87.9 
	370,78.5 370.6,72.3 366.2,64.1 366.2,51.3 376.4,51.1 390.8,50.5 392.5,49.9 392.5,44.9 394.2,44.9 395.8,50.5 398,54.9 
	403.6,57.7 408,58.8 411.9,59.9 411.3,55.9 423.8,55.9 420.5,59.3 425.4,61 430.4,62.7 432.1,64.9 448.1,65.5 455.3,64.9 457,65.5 
	446.5,72.1 436.5,79.3 432.1,82.6 428.2,88.5 428.8,97.3 429.4,98.9 424.3,103.4 421.6,105.6 421.6,109.5 422.1,114 423.2,116.7 
	422.1,125.6 424.3,128.9 433.8,131.7 437.1,133.9 439.3,138.4 442,140 442,146.1 442.6,147.8 375,146.6 375,144.4 "/>
<polyline id="polyline88" class="st0" points="464.1,299.7 459.7,303 461.9,308.5 457,314.7 453.1,321.3 452.6,327.4 452.8,335.3 
	455.3,344.7 458.1,350.2 452.6,354.1 451.5,357.9 447.5,363.5 448.7,371.3 473.6,371.3 476.3,371.3 478.1,379.5 483.3,377.1 
	490.8,374.9 497.4,375.7 495.8,363.5 495.8,297.5 486.9,297.5 464.7,298.1 464.1,299.7 "/>
<polyline id="polyline90" class="st0" points="474.7,272.6 470.8,277 470.8,281.9 464.1,283.1 461.4,280.8 463.1,278.1 464.7,271.9 
	401,274.7 400.8,226.6 399.4,226 395,217.8 397.6,215.3 397.1,212.8 383.9,201.6 429.8,199.9 437.1,197.6 440.8,203.4 443.1,211 
	444.8,216.5 448.7,221.6 454.8,228.2 461.4,228.7 461.9,232.6 460.3,236 460.3,240.4 464.7,246 469.2,249.3 474.1,253.1 473,256.4 
	471.9,257.6 476.7,261.7 479.5,263.8 474.7,272.6 "/>
<polyline id="polyline92" class="st0" points="141.9,38.5 141.4,48.5 142.5,54.1 145.8,57.4 148.6,61.9 149.7,66.3 152.5,69 
	154.1,69.6 155.8,71.2 151.9,79.6 150.8,87.9 151.4,91.2 153.6,89.6 156.3,89 158,87.9 159.1,94 158.6,97.3 161.8,101.2 163,105.6 
	166.3,108.9 165.2,113.4 172.9,114.4 177.9,113.4 181.8,112.3 185.7,112.3 190.1,114.4 191.2,106.7 278.8,117 284.5,47 251.9,43.8 
	225.9,41.1 202.6,37.7 179.3,32.7 160,29.4 142.8,25.5 141.9,38.5 "/>
<polyline id="polyline94" class="st0" points="378.4,171.6 382.2,196.8 384.1,201.6 396.9,212.7 390.7,212.4 298.7,208.8 
	299.8,190.5 273.2,188.4 276,152.8 347.4,156.1 354,161 357.4,161 359,158.8 363.4,160 370.6,165 375,167.7 378.4,171.6 "/>
<polyline id="polyline96" class="st0" points="108.5,265 77.7,219.8 56.6,185.4 70,135.2 143.6,152.8 123.7,257 121.5,259.2 
	117.6,256 114.2,258.7 113.1,271.9 108.5,265 "/>
<polyline id="polyline98" class="st0" points="706.7,120 706.6,114 692.3,76.8 685.6,78.8 687.9,83.2 686.8,92.3 684,98.5 
	684,107.3 685.6,116.2 685.6,121.6 706.7,120 "/>
<polyline id="polyline100" class="st0" points="663,191 660.2,185 663,181.6 665.2,175.5 659.1,173.2 659.1,168.8 661.3,156.1 
	659.7,153.9 673,159.4 675.2,161.4 674.6,168 678.5,170.2 678.5,178.6 676.3,185.2 670.8,193.5 663,192.4 663,191 "/>
<polyline id="polyline102" class="st0" points="220,349.8 195.9,348 195.2,352.9 184,351.8 199.3,252.9 280.9,261.2 281.1,270.7 
	275.4,350.7 220.5,346.9 220,349.8 "/>
<polyline id="polyline104" class="st0" points="595.5,149.4 594.8,155.5 599.2,155.5 650.8,145 659.7,153.9 675.2,160.6 
	675.6,141.4 675.2,122.8 666.8,106.7 665.2,89.6 655.8,90.4 647.5,92.1 642,94.8 633.1,107 633.6,115.4 634.7,120.9 630.3,122.5 
	627,125.8 620.9,127.6 611.4,128 599.8,130.9 599.8,137 603.2,140.8 599.8,144.2 595.5,149.2 595.5,149.4 "/>
<polyline id="polyline106" class="st0" points="665.7,243.2 662.4,243.2 643,247.6 619.2,253.1 598.2,254.2 592.5,255.1 
	586.6,258.8 577.1,264.8 572.7,268.6 568.9,268.6 566.7,273.7 560.5,277.5 556.1,279.7 552.8,281.9 550.5,288.6 549.5,291.7 
	568.9,289.2 573.8,284.7 579.9,284.7 597.7,283.1 601,285.9 619.8,285.3 637.5,297.5 639.2,298.3 640.8,296.7 645.3,295.5 
	645.3,291.7 647.5,285.5 652.4,278.9 661.3,277.3 666.3,273.3 664.6,270.6 658.6,272.3 661.3,268.9 661.9,265.6 655.8,264.5 
	659.1,263.4 665.2,265.1 668,261.1 670.8,256.7 674.6,258.4 673.5,266.2 675.7,262.9 676.3,258.4 670.2,250.1 666.3,250.7 663,254 
	658,255.1 657.4,252.3 661.3,252.9 666.3,248.9 668.5,246.7 668,242.3 665.7,243.2 "/>
<polyline id="polyline108" class="st0" points="372.8,98.5 371.2,87.9 370,78.5 370.6,72.3 366.2,64.1 366.2,51.3 347.1,50.5 
	326.2,49.7 304.9,48.5 284.4,47.1 280.3,100.7 373.2,104.9 372.8,98.5 "/>
<polyline id="polyline110" class="st0" points="570.5,219.3 576.6,209.4 583.3,206 587.1,198.8 587.7,183.2 585.1,156.4 
	581.6,159.1 570.5,166.4 566.1,169.1 561.1,171.9 559.4,169.7 556.1,169.7 551.1,170.2 546.7,169.7 543.9,168.8 529,170.5 
	536.7,213.8 536.7,218.8 539.5,218.8 543.4,222 553.4,224.3 560.5,222.6 565.7,223.6 568.7,226.4 570.5,219.3 "/>
<polyline id="polyline112" class="st0" points="280.9,261.1 400.8,265.2 402.8,325.2 398.8,324.7 394.4,320.7 388.4,320.3 
	383.4,321.9 375,322.5 369.5,321.9 364.5,322.5 361.2,320.3 357.4,320.3 351.8,320.7 349.6,318.5 347.4,316.9 341.8,316.3 
	337.4,314.7 333.5,312.5 329.6,310.8 323.5,309.7 324.1,271.4 280.9,270.9 280.9,261.1 "/>
<polyline id="polyline114" class="st0" points="39.2,52.1 36.5,54.9 36.5,61 31,69.3 30.4,73.2 31.5,75.9 28.7,78.8 27,82.1 
	26.5,88.1 23.7,92.6 21,94.3 22.6,97.1 17.7,99.3 16.6,104.3 15.5,108.1 17.1,109.3 14.9,112.6 14.9,117.6 16.9,121.5 70.2,135.2 
	105.2,143.4 120.4,80.3 122,72.8 114.8,72.3 109.3,71.2 103.8,70.1 94.3,69.6 91.6,70.7 86.6,69 83.2,69.6 78.3,69.6 73.2,67.9 
	70.5,68.5 68.8,67.4 65.5,66.3 61,67.4 54.4,67.4 51.1,61.9 52.8,54.1 51.7,51.9 42.8,49.1 39.2,52.1 "/>
<polyline id="polyline116" class="st0" points="658.6,183.8 591,197.2 584.8,157.2 595.5,149.4 594.8,155.5 599.2,155.5 650.8,145 
	659.3,153.4 661.3,156.1 659.1,168.8 659.1,173.2 665.2,175.5 663,181.6 658.6,183.8 "/>
<polyline id="polyline118" class="st0" points="698.4,143.3 698.4,133.9 700,134.4 703.4,135.6 705.6,137.5 705.1,144.2 
	703.4,146.4 697.8,146.4 698.4,143.3 "/>
<polyline id="polyline120" class="st0" points="637.5,297.5 619.8,285.3 601,285.9 597.7,283.1 579.9,284.7 573.8,284.7 
	568.9,289.2 566.7,289.7 564.5,294.7 567.2,297.5 571.1,298.1 573.8,300.8 581.6,310.8 587.7,311.3 595.5,321.3 599.8,328 
	602.6,331.9 608.3,330.8 614.4,333.9 612.4,329.5 610.4,326.6 612,326.6 617,325.5 617,322.1 619.8,321.7 623.6,319.9 625.8,314.4 
	630.3,312.8 630.3,309.5 633.1,302.2 639.2,298.2 637.5,297.5 "/>
<polyline id="polyline122" class="st0" points="375,167.7 370.6,165 363.4,160 359,158.8 357.4,161 354,161 347.4,156.1 
	276.2,152.6 280.3,100.7 372.2,105.1 371.2,108.4 370.6,113.4 374.5,117.8 375,144.4 375,147.2 372.8,148.3 374.5,164.4 
	378.4,171.6 375,167.7 "/>
<polyline id="polyline124" class="st0" points="486.9,297.5 496.2,296.9 549.2,291.7 550.5,288.6 552.8,281.9 556.1,279.7 
	560.5,277.5 566.7,273.7 568.9,268.6 572.7,268.6 577.1,264.8 592.4,255.1 581.1,257 557.8,260.4 519.5,264.8 498,267.6 
	491.9,268.2 485,272 476.9,269.2 470.8,277 471.4,284.1 469.1,292.5 465.5,295.9 464.7,297.8 471.9,298 486.9,297.5 "/>
<polyline id="polyline126" class="st0" points="409.9,394.9 405,398.2 401.6,395.4 401.6,392.7 397.8,394.9 399.4,398.2 
	398.3,400.9 393.9,406.5 387.2,410.4 380.6,413.7 375,413.1 371.2,412.6 372.2,415.3 374.5,417.5 374,419.8 367.3,420.8 364,422.6 
	364.5,424.8 362.9,427 359.6,427.5 359.6,430.3 357.8,434.2 354.6,435.9 354,438.6 358.4,438.6 359.6,442 357.4,446.4 359,449.7 
	360.1,456.4 359.6,460.8 360.6,463.3 351.8,460.8 342.4,459.2 337.4,457 330.2,450.3 326.8,442 322.4,433.6 320.8,427.5 
	316.9,423.7 314.2,420.8 311.4,417.5 311.4,412.6 308.1,408.7 308.1,404.3 303.6,400.4 298.7,396.5 294.7,392.7 287,391.5 
	279.3,389.3 273.7,391.5 272.6,399.3 269.9,401.5 266.5,403.1 261,399.8 253.3,393.7 249.3,389.3 247.7,381.5 242.7,374.3 
	242.2,369.9 233.8,363.8 232.7,360.5 226.1,353.2 219.9,349.7 220.3,347 275.4,350.7 280.9,270.9 324.1,271.4 323.5,309.7 
	329.6,310.8 333.5,312.5 337.4,314.7 341.8,316.3 347.4,316.9 349.6,318.5 351.8,320.7 357.4,320.3 361.2,320.3 364.5,322.5 
	369.5,321.9 375,322.5 383.4,321.9 388.4,320.3 394.4,320.7 398.8,324.7 402.8,325.2 407.2,326.9 409.4,341.3 409.4,354.6 
	415,361.3 417.7,367.9 418.8,374.6 417.2,380.7 413.8,386.2 413.8,390.1 414.4,394 409.9,394.9 "/>
<polyline id="polyline128" class="st0" points="687.6,85.5 686.8,92.3 684,98.5 684,107.3 685.6,116.2 685.6,121.8 675,122.8 
	666.8,106.7 665.2,89.6 687.6,85.5 "/>
<polyline id="polyline130" class="st0" points="635.4,203 640.3,199 643.6,205.2 642.6,215.2 647.5,219.6 654.1,226.3 657.4,229.6 
	654.6,231.2 648.6,231.2 654.1,234.6 660.8,236.2 665.2,237.9 668,242.3 662.4,243.2 643,247.6 619.2,253.1 598.2,254.2 581.1,257 
	557.8,260.4 558.9,258.2 563.3,254.2 568.3,252.6 568.9,248.7 574.9,243.2 577.1,243.7 584.8,245.4 591,243.2 597,238.7 601,233.8 
	603.2,225.4 605.9,220.4 609.2,216.5 613.6,217.1 614.8,213.2 617,208.2 622,201 625.3,196 633.6,202.1 636.4,202.7 635.4,203 "/>
<polyline id="polyline132" class="st0" points="64.2,20.5 64.7,22.7 61.4,26.7 58.6,30.5 58,33.3 58.6,35.5 58.6,37.7 62.5,36.6 
	64.2,33.8 66.9,31.1 67.5,26.7 68,22.2 65.3,22.2 64.7,19.4 65.8,17.2 68.6,13.9 68.6,7.8 72.4,6.7 91.3,11.6 104.6,16.1 124,21.1 
	133,23.5 124.8,61.9 123.6,66.8 121.9,72.8 114.8,72.3 109.3,71.2 103.8,70.1 94.3,69.6 91.6,70.7 86.6,69 83.2,69.6 78.3,69.6 
	73.2,67.9 70.5,68.5 68.8,67.4 65.5,66.3 61,67.4 54.4,67.4 51.1,61.9 52.8,54.1 51.7,51.9 44.8,49.5 41.4,46.6 41.4,41.6 43.6,36 
	41.4,33.8 42.5,26.1 39.8,16.1 44.8,7.8 53.6,16.7 58,15.5 58,18.3 63.6,19.4 64.2,20.5 "/>
<polyline id="polyline134" class="st0" points="492.5,100.4 490.2,106.5 488,113.6 485.2,120.3 485.2,123.1 488.5,117.6 
	492.9,112.6 495.2,109.8 492.9,114.8 490.7,119.8 488.5,128 489.1,133.6 488,142 488,152 489.1,157.5 488.5,160 449.7,161 
	448.7,158.8 444.1,151.2 442.2,147.2 442,140 439.3,138.4 437.1,133.9 433.8,131.7 424.3,128.9 422.1,125.6 423.2,116.7 422.1,114 
	421.6,109.5 421.6,105.6 424.3,103.4 429.4,98.9 428.8,97.3 428.2,88.5 430.4,88.1 436,87.7 440.4,86.5 443.7,85.9 444.8,84.9 
	446.5,88.1 451.5,89.3 457,88.1 454.8,91.2 469.7,94.5 481.9,100.1 485.8,110.1 492.5,100.4 "/>
<polyline id="polyline136" class="st0" points="273.2,188.2 279.1,116.9 191.2,106.7 179.5,177.7 235.6,184.4 273.2,188.2 "/>
<polyline id="polyline138" class="st0" points="199.4,253 127,240.6 143.8,152.9 182.5,160 179.4,177.6 207.3,181 199.4,253 "/>
<polyline id="polyline140" class="st0" points="572.2,236 575,243.2 584.8,245.4 591,243.2 597,238.7 601,233.8 603.2,225.4 
	605.9,220.4 609.2,216.5 613.6,217.1 614.8,213.2 617,208.2 622,201 625.3,196 633.6,202.1 636.4,202.7 632,198.8 624.8,194.3 
	607,202.7 607,194 591.1,197 588.1,181 587.1,198.8 583.3,206 576.6,209.4 570.5,219.3 568.9,226 572.2,236 "/>
<polyline id="svg_1" class="st0" points="207.4,181 272.9,188.2 299.8,190.5 295.8,261.6 280.9,261.2 199.5,253.1 207.4,181 "/>
</svg>
