<?xml version="1.0" encoding="utf-8"?>
<!-- Generator: Adobe Illustrator 21.0.0, SVG Export Plug-In . SVG Version: 6.00 Build 0)  -->
<svg version="1.1" id="Calque_1" xmlns="http://www.w3.org/2000/svg" xmlns:xlink="http://www.w3.org/1999/xlink" x="0px" y="0px"
	 viewBox="0 0 600 370.8" style="enable-background:new 0 0 600 370.8;" xml:space="preserve">
<style type="text/css">
	.st0{
		fill:rgba(255, 255, 255, 0.31);
		stroke:white;
		stroke-width:1.881;
		stroke-miterlimit:10;
		stroke-dasharray: 1000;
  		stroke-dashoffset: 1000;
  		animation: dash 5s linear alternate infinite;
  		transition: background 2s ease;
	}
	@keyframes dash {
	  from {
	    stroke-dashoffset: 1000;
	  }
	  to {
	    stroke-dashoffset: 0;
	  }
	}
</style>
<g id="states">
	<path id="wv_1_" class="st0" d="M453,175.1l-0.1-0.1c4,0.1,3.3-4.4,3.9-6.7c0.6-2.5,1.2-1.7,2.4-3.1c0.5-0.6,2.8-4.3,2.8-4.6
		c0-2,3.1-0.9,4.4-3c1.4-2.2,1.8-3,2.3-5.5c0.8-3.9,0.1-11.5,0.1-11.5s0.6-0.2,1-0.4l2.3,12.9l11.2-1.8"/>
	<path id="wv_2_" class="st0" d="M483.3,151.3l1.2,7.3c2-2.8,3.9-4.7,3.9-4.7c1.4-0.1,2.3-1.7,2.3-1.7c-0.1-0.7,0.1-0.8,0.3-0.8
		s0.5,0.1,0.5,0.1c1.2,0.9,2.6,0.5,2.6,0.5c2-4,5-2.5,5-2.5c2.8,1.2,3.5,3.7,3.5,3.7c0,1.7-0.4,2.3-1,2.3"/>
	<path id="wi_2_" class="st0" d="M388.5,84.2"/>
	<path id="wi_4_" class="st0" d="M372.6,77"/>
	<path id="wi_1_" class="st0" d="M361.8,126.8c0,0-0.4-0.7-0.6-1.1s-0.4-0.4-0.7-0.6c0,0-0.2-0.1-1-0.3c0-0.1-1.1-0.4-1.6-0.7
		c-1.1-0.5-1.7-3.1-1.8-4.2c-0.2-1.7,0.4-3,0-4.5c-0.2-0.7-0.7-0.9-1.2-2.3c-0.6-2.1-0.4-4.6-2.1-6.3c-1.6-1.6-3.8-1.7-5.2-3.8
		c-0.9-1.4-4.1-4.1-5.7-4.3c-3.6-0.6-3.1-2.5-3.6-5c-0.5-3,0.7-6.4,0.7-6.9s-2.5-2.4-2.5-3.3c0-0.9,1.1-1.6,1.3-2.6
		c0.6-2.9,4.5-0.9,4.3-5.9c-0.1-3.1-1-5.5,1.4-7.3c1.7,2.6,7-0.7,8.9-1.7c0.8-0.4,3.3-2.8,3.9-1c0.3,0.7-0.6,1.3-0.8,1.8
		c-0.3,0.8,0,1.5-0.6,2.3c0.5,0.1,0.9,0,1.3-0.2c1.2-0.5,1.2-0.2,1.2-0.2c1.4-0.2,1.8,0.4,3.1,0.3c0.9-0.1,1.6-0.5,2-0.7
		c0.6-0.4,0.7-0.6,2.3-2c0.5-0.5,0.8-0.7,0.9-0.8c0.9-0.6,1.6-0.4,3-0.7c0,0,0.6-0.2,1.8-0.6c3.2-1.4,4-5.3,5.6-5.1
		c1.3,0.1,2.3,2.9,2.5,3.3c0.1,0.4,0.4,1,0.4,1c0,0-0.4-0.9-0.4-0.9c0,0.1,0.1,0.4,0.1,0.6c0.2,1.1,0,1.7,0.1,1.8
		c0.3,0.1,0.7-1,1.9-1.7c1.1-0.6,2.3-0.6,2.9-0.6c0.4,0,0.8,0,1.3,0.1c1.5,0.4,1.9,1.5,3.4,2.9c0.5,0.5,1.3,1.1,2.3,1.6
		c3.3,1.5,7.1-0.4,7.7-0.8c1.4-0.7,1.1-0.9,2.4-1.5c1.6-0.7,3.5-1.1,5.7-1.5c0.2,0,0.5-0.1,0.9-0.2c0.4-0.1,0.8-0.3,1.7-0.7
		c0.9-0.4,0.8-0.4,1.2-0.6c1.1-0.5,1.8-0.8,2.1-0.5c0.2,0.2,0,0.6,0,1.6c0,0.7-0.1,1.9,0.5,2.4c0.1,0.1,0.3,0.2,1.5,0.1
		c1.6-0.1,2.5-0.1,3.3-0.3c0.8-0.2,0.8-0.4,1.1-0.3c0.8,0.1,1.4,1,2.4,2.7c0.3,0.6,0.3,0.6,0.5,0.9c0.2,0.2,0.9,1.1,1.9,1.5
		c0.1,0,0.2,0.1,0.4,0.2c0.2,0.1,0.7,0.5,0.7,0.9c0,0.1-0.1,0.2-0.2,0.3c-0.4,0.3-0.8,0.2-1.7,0.3c-0.4,0-0.4,0.1-0.8,0.1
		c-1.2,0.2-1.7-0.1-2.9-0.1c-1.2,0-2,0-2.4,0.5c-0.5,0.7,0.1,1.7-0.2,1.9c-0.1,0.1-0.2,0-0.9-0.4c-0.7-0.5-1.2-0.9-1.4-1.1
		c0,0-0.7-0.5-1.3-0.8c-1.1-0.5-3-1-4.4-0.2c-0.8,0.4-0.5,0.7-1.3,1.3c-1.3,0.9-2.4,0.3-4.7,1.2c-0.4,0.1-0.6,0.2-0.8,0.4
		c-1.4,0.9-1.5,2.5-2,2.5c-0.4,0-0.4-0.8-0.9-0.9c-1.1-0.3-2.6,2.8-3.5,2.5c-0.2-0.1-0.3-0.3-0.5-0.7c-0.5-1.1-0.1-2.1-0.2-2.1
		c-0.1-0.1-1.2,2.4-5,11.9l-1.5,2l-1.9,3.2l-0.8,2.9l2.5-1.1c0.9-1.2,2.6-5.7,4.1-2.4c0.7,1.6-1.3,4.8-1.3,6.6
		c-0.1,1.2,1.3,1.7,0.2,2.6c-0.9,0.8-1.3,2.4-1.3,3.6c0,2.3,0.4,4.3-0.3,6.6c-0.9,2.7-0.2,4.6,0.5,7c0.6,2.1,0.6,4,1,6.3"/>
	<path id="wa_1_" class="st0" d="M42.9,42.4"/>
	<path id="vt" class="st0" d="M547.2,59.9c0,0-0.2,0.7,0.1,1.3c0,0,0.2,0.8-0.1,1.9c0,0-0.5,0.8,0.5,2c0,0,1.5,2-1.7,4.6
		c0,0-1.8,1-0.8,4.1c0,0,0,1.2-0.5,4.3c0,0-0.3,0.8-0.7,3.3c0,0-0.1,2.3,0.3,4.1c0,0,0.3,2.7,0.7,4.4c0,0-1.6,1.9,1,3.8l-7.9,1.7
		l-0.5-1.5l-2-9c0,0-1.2-2.4-1.8-0.5c0,0-0.5-0.4-0.4-2.4c0,0-0.4-1.6-0.9-3c0,0-0.6-1.9-0.5-3.7c0,0,0-1.7-0.5-3.3
		c0,0-0.6-0.8-1.2-3.2c0,0-0.4-2.8-1-4L547.2,59.9"/>
	<g id="va">
		<path id="va_eastern_shore" class="st0" d="M529.6,176.7c-0.3,1.7-0.9,2.5-1.6,3.5c-1.8-6.4,1.8-9.6,0.4-11.9l0.5-0.4l2.9-1
			C531.8,169.3,530.5,171.9,529.6,176.7z"/>
		<path id="va_mainland_1_" class="st0" d="M445,202.3"/>
		<path id="va_mainland" class="st0" d="M445,202.3c14.2-1.9,22.2-3,22.2-3l16.1-2.5l23.2-4.2l22.9-4.7h-0.2c0,0-0.6-1.9-2.9-4.1
			c0,0-1.5-1.5-1.8-3.4c0,0-1.4-0.5-1.7-2.1c0,0-0.5-0.2,1.3-0.9c0,0,0.2-1.5-0.3-2.1c0,0-1.8,0.1-1.4-2.3c0,0,0.7-2,0.3-3.1
			c0,0-1.2-0.3-2.7-1c0,0-0.6-0.4-1.8-1.7c0,0-3.2,1-5.2-2c0,0-0.5-0.2-1.2,0.2c0,0-1.4,1.3-2.1,0.5c0,0-1-1.6,0.7-4.6
			c0,0,2.7-2.3-0.2-4.3c0,0-2.4-1.3-3.6-1c0,0-0.9-0.3-0.8-1.5c0,0-0.7-2-3.2-1.5"/>
	</g>
	<path id="tn_2_" class="st0" d="M440.6,226l-14.8,1.9l-27.8,2.9l-9.9,0.9l-15.7,1.2c0,0,0.5-1.7,1.5-2.7c0.1-0.1,0.9-0.8,0.9-2.1
		c0,0-0.2-1.4,0.6-2.4c0,0,1.6-3.5,2.6-7.5c1.6-3.6,1.7-6.3,1.7-6.3c0.4-0.6,1.1-1,1.1-1l15.4-1.3l-0.1-2.2c20-1.5,36.7-3.4,48.8-5
		c14.2-1.9,22.2-3,22.2-3H467"/>
	<path id="sc" class="st0" d="M486.5,261.6c0,0-2.7-0.7-3.7-3.1c0,0-0.1-1.6-1.6-3.1c0,0-1.7-0.5-2.3-2.9c0,0-0.2-2.1-4-4.5
		c0,0-0.9-0.1-3.8-4.1c0,0-0.7-1.1-4.8-4.3c0,0-6.2-3.3-7.3-7.2c0,0-0.5-1.3-2.4-1.3c0,0-3.3-0.8-4.2-2.9c0,0,0.7-2.7,2.2-4.2
		c0,0,1.6-1.3,3.6-1.7c0,0,0.7-0.2,1.8-1.1c0,0,1.9-1.5,5-2c0,0,10.9-1.2,13.2-0.5c0,0,2.9,1,3.1,3.6l12.6-2l14.8,10.6
		c0,0-4.8,4-5.4,9.6c0,0-0.9,3.1-4.4,7.2c0,0-5.5,6.7-9.9,6.8c0,0,3,0.9,1.7,2.4c0,0-1.3,2.1-4.2-1.4c0,0,0.2,2.2,2.1,3.3
		C488.5,258.8,487,259.7,486.5,261.6"/>
	<path id="ri" class="st0" d="M557.5,111.3c0,0,2.6-1.4,3.4-2.2c0,0,0.3-0.5-0.1-2.3c0,0-0.1-0.9-0.5-1.6c0,0-0.2-0.3,0.2-0.9
		c0,0,0.4-0.5,0.9-0.5c-0.8-0.7-1.4-2-1.4-2c-0.3-0.7-1.1-1.1-1.1-1.1l-3.5,1l2.3,8C557.7,109.8,557.3,110.3,557.5,111.3"/>
	<path id="pa" class="st0" d="M529.1,137.7c0,0,1.8-1.8,2.6-3.1c0,0-3.2-2.4-4.2-3.3c0,0-2-1.6-1.9-3.5c0,0,1.1-1.9-0.5-3.5
		c0,0,1.4-1.3,1.9-3.2c0,0-0.1-1.6,1.3-2.9c-0.6-0.8-1.4-0.6-2.3-1c-1.5-0.6-1.4-1.1-2.2-2.3c-1.5-2.2-2.4-2.4-4.1-4l-9.5,2.2
		l-14.4,3l-12.8,2.5l-8.3,1.5l-0.6-3.3l-0.1-0.3l-3,2.4l-3,2.1l-1.2,0.7l3.2,18.8l2.3,12.9l11-2l18.2-3.5l20.7-4.4
		c0.7-3.7,3.6-2.1,3.6-2.1s0.9-1.1,2-1.6C527.8,139.7,528.1,138.6,529.1,137.7"/>
	<path id="or_1_" class="st0" d="M355.1,113.1c-0.6-2.2-0.4-4.6-2.1-6.3c-1.6-1.6-3.8-1.7-5.2-3.8c-0.9-1.4-4.1-4-5.7-4.3
		c-3.6-0.6-3.2-2.5-3.6-5c-0.5-2.9,0.7-6.4,0.7-6.9s-2.5-2.4-2.5-3.3s1.1-1.6,1.3-2.6c0.6-3,4.5-1,4.3-5.9c-0.1-3-0.9-5.5,1.4-7.3
		c0,0,0.6-0.6,2.2-2.1c0,0,4.8-4.1,6.5-7.1c0,0,3.9-4.9,8.9-6.1c0,0,4.8-2.4,5.6-3.6c-1.4,0-2.8,0.5-4,0c-0.3-0.1-0.6-0.9-1-1.1
		c-0.4-0.1-1.3,0.1-1.8,0.2c-2.1,0.3-5.1,1.2-5.3-1.3c-3.3-0.3-4.3,4.8-8.2,2c-0.7-0.5-0.8-1-1.8-1.4c-0.7-0.3-1-1.1-1.4-1.3
		c-1.3-0.6-2.6-0.3-2.6,1.3c-1.6-0.5-1.1-0.5-3.2-2.8s-5.6-2.6-7-1.9c-0.9,0.5-2.1,1.9-3.4,1.5c-1-0.3-0.7-1.1-1.2-1.4
		c-0.6-0.3-1.7-0.2-2.3-0.3c-1.5-0.2-2.5-0.8-4.1-0.8c-1.9,0-1.5-1.6-1.8-2.7c-0.5-1.6-0.9-3.1-1.2-4.7c-0.3-1.9-1.9-1.3-3.2-1.9
		l0.1,5.2l-7.3,0.2H294l-8.3,0.1l-18.8-0.4l-22.1-1l-14.7-1l-6.8-0.6L205.2,33l-14.5-1.7l-13.6-1.6l-21-3l-24-4.1l-13.6-2.7
		l-9.1-1.9l-8.9-1.8L84,12.4L69.7,8.9L57.1,5.5c-2.1,2.3,3,4.5,0.6,6.6c-0.3,0.9-0.1,0.6-0.2,1.5c0,1.2,0.2,4.9,0.3,5.6
		c0.3,2.1-1.9,3.6-2.4,5c-0.2,0.6,0.5,2.7,0,3.7c-0.6,1.2-1.4,0.3-1.1,0.5c0-1.7-0.6-1.6-0.9-3.1c0-0.3-0.1-0.9,0.2-0.8
		c0-0.4-0.2-1.4-0.1-1.8c1.6-0.5,1.9-0.2,1.3-2.2c-0.7-1.2-0.9-1.4-1-3.7c-0.4,0.7-0.7,0.7-1,1.6c-0.8-0.5-1.2-0.7-1.6-1
		c-0.1-2.1-4.6-2.8-6.9-3.5c-2.8-0.9-4.9-3.8-7.3-5.4c0.4,3-1.6,2.9-0.2,7.9c1.1,4-0.3,8.9,0.2,12.6c0.1-0.3,0.2-0.6,0.3-0.9
		c0.8,0.4,2,1.3,2.6,1.9c-2,0.2-2,0.8-3-0.1c-0.9,2.2,1.3,1.8,0.5,6.3c-0.4,0.7-1.2,0.7-1.4,0.6c0.2-0.8,0-2,0.2-2.7
		c-0.3,1.5-0.7,3.1-1.1,4.6c0,0-0.2,4.9-1,6.4c-0.4,0.9-1,3.3-1.3,4.4c-1.8,8.3-6.3,15.7-9.3,23.7c0,1.3-1.7,3.7-2.2,4
		c-0.5,0.3-0.7,0.1-0.9,0.4c-1,2-1.8,3.8-3.2,5.6c-1,1.3,0.4,3.1,0,4.5c-0.8,2.8-3.1,6.5,0,8.9l-0.4-0.1l0.4,0.1"/>
	<path id="oh_1_" class="st0" d="M437,129.8"/>
	<path id="oh" class="st0" d="M440.4,130.7c1.8,0.3,3.7,1.3,3.7,1.3c4,1.5,4.9,0.6,4.9,0.6c2.2-2,4.9-2,4.9-2
		c1.7-0.3,3.3-1.6,3.3-1.6c1-1.4,2-2.5,2-2.5c2.2-1.9,7.6-4.8,7.6-4.8l3.2,18.8c-0.5,0.2-1,0.4-1,0.4s0.7,7.6-0.1,11.5
		c-0.5,2.5-1,3.3-2.3,5.5c-1.3,2.1-4.4,1-4.4,3c0,0.2-2.3,4-2.8,4.6c-1.2,1.4-1.8,0.6-2.4,3.1c-0.6,2.3,0.1,6.8-3.9,6.7l0.1,0.1
		c-0.9-1-4.6-4.2-5.6-3.3c-2.4,2.2-2.3,0.5-5.2,0.8c-1.3,0.1-6.3,0.6-7.5-1c-2.1-2.8-4.1-3.9-7.3-2.7"/>
	<g id="ny">
		<path id="ny_1_" class="st0" d="M538.2,95.4l-0.3,9.6l0.3,0.5l1.8,10.2c0,0,0.7,0.6,0.5,1.9c0,0-0.1,0.2-1.1,1.2
			c0,0-0.6,0.3-0.1,0.8l0.8,0.8l0,0c0,0-0.6,1.2-0.9,1.9c0,0-0.1,0.7-0.6,1.2c0,0-0.7,0.5-1,1.1c0,0,0.6-3.2-0.4-5.9
			c0,0-0.4-0.5-0.7-0.7c0,0-0.5-0.4-0.5-1c0,0-0.5,0.7,0.8,2.2c0,0,0.5,1,0.7,2.1l-9.4-3c-0.6-0.8-1.4-0.6-2.3-1
			c-1.5-0.6-1.4-1.1-2.2-2.3c-1.5-2.2-2.4-2.4-4.1-4l-9.5,2.2l-14.4,3l-12.8,2.5l-8.3,1.5l-0.6-3.3l-0.1-0.3c0,0,5.7-5.7,7.5-8.8
			c0,0,0-3.1-0.6-3.7c0,0-1.5-0.8-1.9-2.3c0,0-0.6-1.6,6.5-3.5c0,0,4.7-0.6,8.4-0.4c0,0,3.4,0.2,6.3-1.1c0,0,0,0,0.1,0
			c3-1.3,6.6-6.3,5.2-8.8c0,0-0.9-2.3-1.6-3.4c0,0-0.5-0.8,0.1-1.6c0,0,2.3-2.2,3.4-4.3c0,0,3.2-9.7,10.1-10.6l12-3c0.6,1.2,1,4,1,4
			c0.6,2.5,1.2,3.2,1.2,3.2c0.5,1.5,0.5,3.3,0.5,3.3c-0.2,1.8,0.5,3.7,0.5,3.7c0.5,1.5,0.9,3,0.9,3c-0.1,2,0.4,2.4,0.4,2.4
			c0.6-2,1.8,0.5,1.8,0.5l2,9L538.2,95.4"/>
		<path id="long_island_5_" class="st0" d="M539.5,123.6c0,0-1.5,0.7-1.9,2c0,0-0.3,0.8,0.2,1.1c0,0,0.9,0.2,1.7-0.1
			c0,0,2.1-0.9,4.6-2.3c0,0,2.1-1.3,3.2-1.9c0,0,2.1-1.2,3.5-1.6c0,0,1.2-0.5,1.7-1.2c0,0,0.2-0.4,0.7-0.7c0,0,1.5-0.5,4.2-3.5
			c0,0-1,0.6-1.8,0.8c0,0-1.1-0.1-2,0.8c0,0-1,1.8-2.5,2c0,0,1.2-1,1.6-2.6c0,0,0.4-0.9,0.7-1.5c0,0-1.9,2.5-3.6,3.6
			c0,0-1.7,0.6-2.9,0.9c0,0-0.8,0.1-1.7,0.8c0,0-0.3,0.4-2.1,1.1c0,0-1,0.2-1.6,0.3C541.5,121.4,540.2,122.2,539.5,123.6z"/>
	</g>
	<path id="nm_1_" class="st0" d="M386.9,300c-3.1,1-5.8-3.2-8.9-1.9c-3.2,1.3-1.8,3.8,0.6,4.2c2.3,0.3,2.9-1,4.5-1.2
		c0.5,0,0.7,0,1.2,0.5c-0.4,1,0,0.9-1.1,1.2c3.3,2.6,3,0,4.3-0.4c1,0.2,1.7,1,1.3,3c-1.5-0.2-2.5,1-1,2.3c-0.7-0.3-1.2-0.6-1.8-0.3
		c-2,2.8,5.2,2.3,7.7,5.9c-0.2,1.5-0.4,1.4-1,2.3c-0.8-0.4-1.6-0.7-2.8-1.4c-1.9-1.1-2.3-1-4.6-2.5c-2.6-2-4.1-2-5.7-2.7
		c0.7,1.4,3.2,2.6,1.3,4c0.6,1,0.1,2.9-1.5,2.8c-1.3-0.1,0.6-3.4-2.2-2.2c-0.1-0.3-0.2-0.6-0.3-1c-2.8,0.3-2.8,4.8-5.8,2.8
		c-2.3-1.5-1.9,0-2.9-2.3c-0.7-1.6-3.3-2.2-4.6-3c-1.6-1.1-1.7-1.6-4.1-2.4c-1.5-0.7-4.9-0.7-3.1,2.4c-5.2,1.5-10.4-1.4-15.8-2.3
		l-6.9,2c-4.8,0-6.8,3.5-10.5,2.7c-3-4.8-1.7,2.4-2.7,3.9c-2.9,4.1-12.5,9.6-12.8,9.6s-0.3-0.3-1-0.7s-5.6,0.2-3.2,2.5
		c-5.4,2.7-6.1,3.9-10,8.9c-2.6-1-1.6,3.1-2.8,6.9c-0.8,2.6-1.5,3.8-1.7,6.1s3.5,9.8,2.5,14.5c-2.2-0.7-3.9-3-6.5-2.9
		c-3.6,0.1-6.8-3.2-9.5-2.7c-5.8,1.1-7.2-7.7-9.9-11.2c-0.9-1.1-0.8-4.3-0.7-5.3c0.3-3.8-4-3.2-4.6-6.6c-0.8-4-5.7-8.2-7.3-12.2
		c-3.9-9.8-12.3-19.2-22.7-16.1c-3.7,1.1-8.1,6.5-9.3,10.2c-0.9,2.6-12.5-6.9-13.8-7.8c-5.8-4.1-5-13.7-10.2-19.1
		c-4-4.2-8.1-9.6-12.2-13.8l-1.5-1.3l-20.4-2.2l-0.7,6.3l-10-1.2l0,0"/>
	<path id="nj" class="st0" d="M529.1,137.7c-0.4,0.8-0.3,1.1-0.3,1.1c0,0.8-1.3,1.7-1.3,1.7c-1.3,0.5-1.6,1.4-1.6,1.4
		c-0.4,1.1-0.8,2.4-0.8,2.4c0.4,0.8,0.3,1.6,0.3,1.6c1.9,1.7,5.1,3.4,5.1,3.4c1.1-0.6,2.7-0.4,2.7-0.4c0.5,0.8,0,2.5,0,2.5
		c0,1.2,0.9,0.8,0.9,0.8c1.4-2.2,1.9-5.6,1.9-5.6c0.3-0.9,1.6-2.8,1.6-2.8c0.3-1.5,1.7-4.1,1.7-4.1c0.9-2.7-0.3-10-0.3-10
		c-1.2,0-3.4-0.2-3.4-0.2c-0.2-2.1,0.5-3.6,0.5-3.6c1.1-0.2,1-1.4,1-1.4c0.4-1.1,0.3-3.2,0.3-3.2l-9.4-3c-1.4,1.3-1.3,2.9-1.3,2.9
		c-0.5,1.9-1.9,3.2-1.9,3.2c1.6,1.6,0.5,3.5,0.5,3.5c-0.1,2,1.9,3.5,1.9,3.5c1,0.9,4.2,3.3,4.2,3.3
		C530.9,135.8,529.1,137.7,529.1,137.7"/>
	<path id="nh" class="st0" d="M562,87.2c0,0-1.4,0.1-2.6,1.8c0,0-0.9,1.4-1.7,2.1l-11.5,2.7c-2.5-1.9-1-3.8-1-3.8
		c-0.4-1.7-0.7-4.4-0.7-4.4c-0.4-1.8-0.3-4.1-0.3-4.1c0.4-2.5,0.7-3.3,0.7-3.3c0.5-3.1,0.5-4.3,0.5-4.3c-1.1-3.1,0.8-4.1,0.8-4.1
		c3.2-2.7,1.7-4.6,1.7-4.6c-0.9-1.2-0.5-2-0.5-2c0.3-1.1,0.1-1.9,0.1-1.9c-0.4-0.6-0.1-1.3-0.1-1.3s0-1.2,0.2-2.8
		c0,0,0.1-0.8,0.5-1.2c0,0,0.3-0.4,1.1-0.6c0,0,0.8-0.1,1.1-0.4l6.9,20.8l1,2.7c0,0-0.2,2.6,2.4,4c0,0,0.2,1.2,1.5,1.9l0.4,0.3
		C562.4,84.5,561.8,86.2,562,87.2z"/>
	<path id="nc_1_" class="st0" d="M467.2,199.2l16.3-2.6l23.2-4.2l22.9-4.7"/>
	<path id="nc" class="st0" d="M529.3,187.9c0,0,0.3,0.8,1.6,2.1c0,0,1.8,1.4,1.9,3.5c0,0-0.7-1.2-2.6-0.3c0,0-1.9,1.1-3.5,2.3
		c0,0-1.2,1.9-3.9,0c0,0,0.2,2.4,5.2,1.5c0,0,1.4-0.7,3.7-0.7c0,0,1.3,0.2,1.9-0.6c0,0,2.1,1.7,1.3,4.3c0,0-0.3,2.9-3.2,4.5
		c0,0-0.8,0.9-9.5,0.2l6.3,2.1c0,0-0.3,1.8-1,2.9c0,0-0.4,1.9-2.9,1.9c0,0,2,0.8,4.9-1.5c0,0,1.9-1,1.9,0.5c0,0,0,1.5-2.1,3.2
		c0,0-3.1,1.6-5.2,2.1c0,0-3.6,2.2-6.4,6c0,0-1.6,2.3-1.6,4.7c0,0,0.7,0.7-1.4,2.4c0,0-3.2,0.5-5.9,1.7L494,220.1l-12.6,2
		c-0.2-2.6-3.1-3.6-3.1-3.6c-2.3-0.7-13.2,0.5-13.2,0.5c-3.1,0.5-5,2-5,2c-1.1,0.9-1.8,1.1-1.8,1.1c-2.1,0.4-3.6,1.7-3.6,1.7
		l-13.9,2"/>
	<path id="ms_2_" class="st0" d="M400.2,296.1c0,0-1.9,0.9-4.3,0.5c0,0-1.3-0.3-3.7,0.4c0,0-2.5,0.5-3.4,1.6c0,0-0.5,1.4-1.8,1.6
		c0,0-3.6-4.2-4.5-6.7c0,0,0.1-1.4,0.8-3c0,0,0.3-1,0.2-1.6l-23.1,1.6c1.4-10.7,5.3-13.9,5.3-13.9c3-4.3,0.7-8.2,0.7-8.2
		c-1.9-2.1-2-6.7-2-6.7c0.5-3.1,0.2-5.6,0.2-5.6c-1.5-1.9-0.5-4.9-0.5-4.9s0.9-1.5,1.4-2.2c0,0,0.8-1.9,1-3c0,0,0.2-1.5,1.3-2.3
		c0,0,2.2-2.8,2.9-5.6c-0.1-0.1,0-1.4,0.3-2.2c0,0,1.4-2.9,1.5-3.1l15.7-1.2l9.9-0.9"/>
	<path id="mo_1_" class="st0" d="M355.2,157.5c-1.8,3.6,0.4,7.8,2.6,10.3c1.9,2.2,3.9,2.7,5.1,4.2c1.5,1.8,0.7,3.9,2,5.6
		c0.4,0.5,2.5-0.5,3.6-0.4c2.7,0.3,2.3,3.1,1.3,4.9c-3.2,5.9,0.5,5.9,3.8,9.7c5.8-1.6,4.6,7.9,6.4,9.9l1.4,1.8
		c0.8-0.5,1.5-0.4,2.2,0.3c0.8,1.7-0.2,3.7-0.6,5.9c-1-0.7-2-0.2-2.1,1.2c0,0-0.7,0.3-1.1,1c0,0-0.1,2.7-1.7,6.3"/>
	<g id="mi">
		<path id="mi_lower_2_" class="st0" d="M443.4,131.7l-2.1-0.8l-0.8-0.2l-1.3,0.4h-1.9l-0.1-1.3c0.9-3.4,2.7-6.6,3.9-9.5
			c0.3-0.8,2.9-7.8,2.9-3.2c3.9-2.2-1.5-19.6-5.3-20.5c-4.7-1-4.8,7.3-8.2,7c-2-0.2-3.3-3.4-1.5-4.7c2.2-1.6,1.7-2.1,2.6-4.6
			c0.3-0.8,1.8-0.6,1.7-1.8c-0.2-1.3-0.3-2.5-0.2-3.8c0.1-2.5-2-2.8-2.3-4.6c-0.4-2.2,2-0.8,0-3.4c-1.2-1.5-2.4-1.7-4.5-2.3
			c-3.1-0.8-5.4-2.2-8.4-3.1c-3.9-1.2-4.7,3-3,5.6c-3.7-0.3-8.2,6.4-9.8,8.4c-1.7,2.1-0.8,3.9-1,6.6c-0.3,2.5-1.5,4.2-1.5,6.3
			c0,2.9-0.3,5,1.2,7.8c1.4,2.7,2.7,5,3.2,8.1c0.6,4.5-0.7,12.8-4.7,15.7"/>
	</g>
	<path id="ma" class="st0" d="M561.4,103.9c0,0,0.6,0.5,1.4,0.9c0,0,1.1,0.1,1.2,2c0,0,0.6-0.5,1.4-1.1c0,0,0.8-1.1,1.3-1.6
		c0,0,0.3-1.1,1.2-1.3c0,0,0.1,1.3,0.7,2.3c0,0,1.9-1.3,3.4-2.1c0,0,2.7-1.3,3.3-1.9c0,0,1.1-1.6-1.3-3.8c0,0-1.5-0.8-3-0.9
		c0,0,2.9,1.2,3.2,2.9c0,0-0.1,1.5-2.4,2.2c0,0-1.5,0.3-2.6-0.8c0,0-0.3-1-1.5-1.4c0,0-0.9-0.2-0.9-0.9c0,0-0.1-0.6,0.7-0.2
		c0,0-1-1.6-2.4-2.2c0,0-0.8-0.1-1.7,0.1c0,0-1-0.1-1.5-1.2c0,0,0.8,0,0.8-0.8c0,0,0-0.8,0.3-1.5c0,0,0.7-1.2,2.1-2
		c0,0,0.2-0.4-0.1-0.8c0,0-0.3-0.1-0.8,0.1c0,0-0.2,0.3-1-0.2c0,0-0.8-0.9-1.1-2.5c0,0-1.4,0.1-2.6,1.8c0,0-0.9,1.4-1.7,2.1
		l-11.5,2.7l-7.9,1.7l-0.3,9.6l0.3,0.5l8.7-1.8l8.4-2l3.5-1c0,0,0.8,0.4,1.1,1.1C560,101.9,560.6,103.2,561.4,103.9"/>
	<path id="md" class="st0" d="M510.4,157.2c0,0,1.9-0.5,1.9,2.8c0,0-2.4,3.7-1.1,4.5c0,0,3-1.7,9.8,2.7c0,0,0.1-1.7-2.9-6
		c0,0-4.5-7.6,1.5-13.4c0.5-0.5,1,0,0.5,1.9c-0.8,2.9-1.4,7.3,0.9,10.4c0,0,0.7,0.8,0.5,2.9c0,0,2-0.5,4.3,1c0,0,1.9,0.8,1.2,3.7
		l1.5,0.7l0.5-0.4l2.9-1c0,0,1.6-4.8,1.7-7.6l-6.6,1.5l-4.8-17.4l-20.7,4.4l-18.2,3.5l1.2,7.3c2-2.8,3.9-4.7,3.9-4.7
		c1.4-0.1,2.3-1.7,2.3-1.7c-0.1-0.7,0.1-0.8,0.3-0.8s0.5,0.1,0.5,0.1c1.2,0.9,2.6,0.5,2.6,0.5c2-4,5-2.5,5-2.5
		c2.8,1.2,3.5,3.7,3.5,3.7c2.5-0.5,3.2,1.5,3.2,1.5c-0.1,1.1,0.8,1.5,0.8,1.5C508,155.9,510.4,157.2,510.4,157.2"/>
	<path id="me" class="st0" d="M550.2,54.9c0,0,0.4-0.6,1.6-0.4c0,0,1,0.1,0.7-1.2c0,0,0.2-2.8,0.9-3.9c0,0,2.5-2.8,1.5-8.1
		c0,0-0.2-2.1,0.6-4.4c0,0,0.3-2.3-0.3-4.2l4-11.9c0,0,0.8-0.5,1.7,0c0,0,0.4,2.9,2.5,2.6c0,0,0.2-0.1,0.5-0.4c0,0,0.7-0.5,1.3-0.8
		c0,0,0.8-0.5,1.6-1.4c0,0,1.5-2.2,4.3-0.4c0,0,2,1.5,3,1.6l5,14.9c0,0,0,2.3,0.8,3c0,0,1.5,0.7,2.5,0.7c0,0,1-0.3,1.5,0
		c0,0,0.2,0.5,0.1,1.2c0,0-0.1,1.2,0.6,1.8c0,0,0.4,0.7,0.5,1.5c0.1,0.7,0,0.1,0,0.1s0.4,0.9,1.9,0.6c0,0,1.2-0.4,2.2,0.6
		c0,0,0.6,0.5,0.4,1.5c0,0-0.8,0.9-0.2,1.6c0,0,1,0.5,1.1-0.5c0,0,2.5,0.8-3,4.9c0,0-1.5,0.6-3,2.1c0,0-0.5,1.7-4.1,2.3
		c0,0-2.1,0.4-1.8,3.5c0,0-1.2-0.5-2.5-0.4c0,0,0.9-1.1-0.9-2.9c0,0-1,1.1-1,2.8c0,0-0.6,3-0.1,4.4c0,0,0.8,0.6-0.3,1.7
		c-0.1,0.1-0.6,0.5-1.3,0.2c0,0-1-0.3-1.4,0.7c0,0-0.2,0.8,0,1.2c0,0,0.1,0.8-0.6,1.2c0,0-1.1,1.1-3.5,1.9c0,0-0.7-0.1-1-0.7
		c0,0-1.1,0.9-1.2,2.4c0,0,0.2,0.6-0.5,2.1c0,0-0.3,0.9-0.5,2.4c-0.2,1.3-0.3,1.2-0.8,2.1c0,0-0.2,0.8-0.1,1.8c0,0,0.1,0.8-0.4,1.7
		l-0.4-0.3c-1.3-0.7-1.5-1.9-1.5-1.9c-2.7-1.4-2.4-4-2.4-4l-1-2.7L550.2,54.9"/>
	<path id="la_2_" class="st0" d="M364.5,261.3c0,0,0.2,4.6,2,6.7c0,0,2.3,3.9-0.7,8.2c0,0-3.9,3.1-5.3,13.9l23.1-1.6
		c0.1,0.6-0.2,1.6-0.2,1.6c-0.7,1.6-0.8,3-0.8,3c0.6,2.7,4.3,6.9,4.3,6.9"/>
	<path id="ky_2_" class="st0" d="M453.2,175.2c-0.9-1-4.6-4.2-5.6-3.3c-2.4,2.2-2.3,0.5-5.2,0.8c-1.3,0.1-6.3,0.6-7.5-1
		c-2.1-2.8-4.1-3.9-7.3-2.7c0,0-0.8,0.5-0.1,1.7c0,0,1.3,2.1-1.1,3.7l-0.6,0.3c0,0-1.8,0.3-2,0.2c-2.5-1.2-2,3.1-3.3,4.6
		c-1.5,1.8-2,2.2-3,4.2c-0.5,1.1,0.5,1.7-1,2.4c-0.7,0.3-2.4-0.3-3-0.8c-1.8-1.4-2.6,1-3.1,2.7c-0.1,0.3-0.8,0.5-1.1,0.4
		c-1.7-0.8-3.2-0.5-4.1,1.1c-0.1,0.2-1.1,0.2-1.5,0c-3.5-2-6,1.6-9.2,1.7c-0.1,1.7-0.5,1-0.3,3.2s-2.2,2.3-2.2,2.3
		c-2.8,1.2-1.5,2.6-1.5,2.6c0.9,0.9,0.6,2,0.6,2c-1,1.2-1.9,0.3-1.9,0.3c-3.7-1.7-4.3-1.2-4.3-1.2c-2.8,1.4-1.4,3.4-1.4,3.4
		c0.8,1.7-0.2,3.7-0.6,5.9c-0.9-0.7-1.9-0.2-2,1.2"/>
	<path id="ky_1_" class="st0" d="M380.9,210.9l15.4-1.3l-0.1-2.2c20-1.5,36.7-3.4,48.8-5l0,0"/>
	<path id="in_2_" class="st0" d="M427.7,169c0,0-0.8,0.5-0.1,1.7c0,0,1.3,2.1-1.1,3.7l-0.6,0.3c0,0-1.8,0.3-2,0.2
		c-2.5-1.2-2,3.1-3.3,4.6c-1.5,1.8-2,2.2-3,4.2c-0.5,1.1,0.5,1.7-1,2.4c-0.7,0.3-2.4-0.3-3-0.8c-1.8-1.4-2.6,1-3.1,2.7
		c-0.1,0.3-0.8,0.5-1.1,0.4c-1.7-0.8-3.2-0.5-4.1,1.1c-0.1,0.2-1.1,0.2-1.5,0c-3.5-2-6,1.6-9.2,1.7"/>
	<path id="il_4_" class="st0" d="M383.7,203.6c-0.7-0.7-1.4-0.8-2.2-0.3l-1.4-1.8c-1.8-2-0.7-11.5-6.4-9.9c-3.3-3.9-7-3.8-3.8-9.7
		c1-1.8,1.4-4.6-1.3-4.9c-1.1-0.1-3.2,0.9-3.6,0.4c-1.4-1.7-0.6-3.8-2-5.6c-1.2-1.5-3.2-2-5.1-4.2c-2.3-2.5-4.5-6.6-2.7-10.2"/>
	<path id="il_2_" class="st0" d="M391,124.5c1.1,5.3,1.4,6.2,4,10.7l2,0.7h2l3.2-2.1l1.5-1.4"/>
	<path id="il_1_" class="st0" d="M355.2,157.4c1.5-3,2.4-3.5,3.3-6.6c0.4-1.3,1.4-1.5,1.3-3c-0.1-1-1.8-2-1.7-2.7
		c0.1-2.8,0.9-2.8,3.5-3.4c3.3-0.7,6.9-5.6,5.6-9.1c-0.7-1.9-3.3-3.9-4.2-4.4s-1.3-1.6-1.3-1.6"/>
	<path id="ga_2_" class="st0" d="M425.9,227.8l14.8-1.9"/>
	<path id="ga_1_" class="st0" d="M440.7,225.9l13.9-2c-1.4,1.4-2.2,4.2-2.2,4.2c0.9,2.1,4.2,2.9,4.2,2.9c1.9,0,2.4,1.3,2.4,1.3
		c1.2,3.9,7.3,7.2,7.3,7.2c4,3.1,4.8,4.3,4.8,4.3c1.8,2.9,3.8,4.1,3.8,4.1c3.8,2.4,4,4.5,4,4.5c0.5,2.4,2.3,2.9,2.3,2.9
		c1.5,1.5,1.6,3.1,1.6,3.1c1,2.4,3.7,3.1,3.7,3.1l0.6,0.2c-2,2.7-2.9,6.2-2.9,6.2c-0.2,3.4-1.8,6.8-1.8,6.8
		c-0.7,2.2-0.2,6.3-0.2,6.3c-3.4-0.8-5.6-0.2-5.6-0.2c-0.8,0.6-0.5,1.7-0.5,1.7c1.3,3.5-0.3,4.4-0.3,4.4c-1.5,0.3-2-2.5-2-2.5
		l-31.8,2.3c-0.9-1.6-2.1-3.6-2.1-3.6"/>
	<g id="fl">
		<path id="fl_1_" class="st0" d="M482.3,281.1c0,0,3.2,11.8,13.1,24.2c0,0,3.4,3.2,3.9,5c0,0-0.2,2.8,2.3,6.9c0,0-2.4-2.3-2.9-7.1
			c0,0,0.3-0.8-3.2-2.8c0,0,0.6,3.9,6.8,12.6c0,0,3,4.7,5.7,9.1c0,0,2.2,4.6,2.2,7.9c0,0-0.2,1.2,0.3,4.9c0,0,0.4,2.1,0,4.4
			c0,0-2.3,2.4-1.1,5.9c0,0-0.5,2.9-3.8,4.6c0,0-3,0.7-5.3,0.8c0,0-1.9-0.8-0.7-2.6c0,0-1.5-2.2-2.6-4.1c0,0-1.7-2.6-4-3.1
			c0,0-1.9,0.6-3.6-1.9c0,0-1.2-2.1-1.2-3.2c0,0,0.1-0.7-2.4-2.4c0,0-2-2.1-1.8-4.5c0-0.1,0-0.4-0.4-0.5c-0.2-0.1-0.6-0.4-1.1-0.8
			c0,0-0.6,0.7,0.6,2.1c0,0-2.7,0.5-6.9-6.9c0,0-1.2-1.6-0.7-2.2c0.5-0.5,1.1-1.5,1.9-3.3c0,0,0.9-1.1,0.4-1.6c0,0-0.5-1.2-1.9,0
			c0,0-0.6,0.7-0.7,1.6c0,0-0.2,1.1-1.1,1.1c0,0-2-0.4-2-2c0,0,2.2-10.2,0.5-14.3c0,0-0.9-2.5-6.1-4.4c0,0-2-1-4.5-4.1
			c0,0-2-2.7-5.5-5c0,0-1.9-1-5.1-0.9c0,0-2.9,0.3-1.8,3c0,0-2.2,0-3.7,1.5c0,0-3.9,2.4-6.8,2.4c0,0-7-12.3-25.4-5.9c0,0-2,1-1-0.4
			c0,0,0.7-0.9-0.9-1.4c0-1.3,0.1-2.6-1.2-3.3c-1.7-0.9-2.4-2.7-0.7-3.9l11.2-1.1l18.8-2.3c0,0,1.1,2,2.1,3.6l31.8-2.3
			c0,0,0.5,2.8,2,2.5c0,0,1.6-0.8,0.3-4.4c0,0-0.4-1.1,0.5-1.7C476.7,280.9,478.9,280.3,482.3,281.1"/>
		<path id="fl_key_5_" class="st0" d="M510.1,353c0,0-0.7,0.2-0.9,1.3c0,0,0,1.2-2.2,4.5C506.9,358.8,509.4,356.4,510.1,353z"/>
	</g>
	<path id="de" class="st0" d="M522.2,143.4c0.7-3.7,3.6-2.1,3.6-2.1c-1.5,2.2-1.1,3.4-1.1,3.4c1.3,2.5,3,4.6,3,4.6
		c0.6,1.8,1.8,4.6,3.5,5l0,0c1.7,0.7,1.5,1.7,1.5,1.7c0.2,2.1,1.4,3.1,1.4,3.1l-0.5,0.1l-6.6,1.5L522.2,143.4"/>
	<path id="ct" class="st0" d="M555.4,101.8l-8.4,2l-8.7,1.8l1.8,10.2c0,0,0.7,0.6,0.5,1.9c0,0-0.1,0.2-1.1,1.2c0,0-0.6,0.3-0.1,0.8
		l0.8,0.8l0.9-0.3c0,0,3.2-3.3,5.2-4.7c0,0,2.7-1.3,5.8-2c0,0,0.6-0.2,1.2-0.4s3.7-1.2,4.2-1.6c-0.2-1,0.2-1.6,0.2-1.6L555.4,101.8"
		/>
	<path id="ca_2_" class="st0" d="M152.1,278.4L152.1,278.4l-5.9-0.7l-17.8-2.5l-15.3-8.6l-23.4-13.5l-2.8-1.7l-0.4-0.4l1-0.5
		l1.1-0.2l0.7-1.3l-0.7-0.5l-27.9-2.9c0,0-0.7-1.4-1.5-2.2c1.4-5.3-0.1-10.9-4.5-14.5c-0.9-0.7-4-2.3-4.3-2.7
		c-1.2-1.7,0-3.9-1.7-5.2c-6.8-5.1-18.4-8.8-21.1-15.5c-0.6-1.4,2.1-3.9,1-5.3c-1.7-2.4-1.6-3.1-3-5.9c-1.5-3.2-5.7-9.3-5.9-12.6
		c-0.1-1.2,1.6-4.9,1.6-5.6c0.1-0.7-1.3-3.9-1.5-4.6c-0.7-4.4-5.3-9-0.6-12.9c-0.2,3.3,0.4,3.7,2.8,5.8c-0.5-1.7-2.9-7.3-1.6-8.4
		c1.6-1.6,8.9,1.9,9.8,2.8c-1-2-1-2-2.2-2.8c-1.1-0.8-8.9-5-9.7,2.2c-1.7-1.6-3.6-3.2-3.7-3.7c0-0.5,0.3-1,0.3-2.9
		c0-2.1-3.3-5.4-4.6-10.6c-1.2-4.9,2.7-10.3,1-15.5c-2.6-8.3-2-7.4,1.5-14.2c2.5-4.9,2.1-11.3,4.3-14.9"/>
	<path id="ar_1_" class="st0" d="M364.4,261.8c0.5-3.1,0.2-5.6,0.2-5.6c-1.5-1.9-0.5-4.9-0.5-4.9s0.9-1.5,1.4-2.2c0,0,0.8-1.9,1-3
		c0,0,0.2-1.5,1.3-2.3c0,0,2.2-2.8,2.9-5.6c0,0,0.1-1.2,0.5-2c-0.2-0.3,1.2-3.2,1.3-3.4c0,0,0.5-1.7,1.5-2.7c0,0,0.8-0.8,0.8-2
		c0,0-0.2-1.4,0.6-2.4c0,0,1.6-3.5,2.6-7.5"/>
	<path id="al_2_" class="st0" d="M425.9,227.8"/>
	<path id="al_1_" class="st0" d="M400.2,296.1c0,0,1.3-0.2,3.4,0.2c0,0,0.2-3.4,0.8-4.9c0,0,2.1,0.4,1.2,3c0,0,0.4,0.9,1.7,1.3
		c0,0,0.9,0.9,1.5,1.8c0,0,2.2-0.6,3.1-3.7c0-1.3,0.1-2.6-1.2-3.3c-1.7-0.9-2.4-2.7-0.7-3.9l11.2-1.1l18.8-2.3"/>
	<path id="al" class="st0" d="M425.9,227.8l-27.8,2.9"/>
</g>
</svg>
