<svg xmlns="http://www.w3.org/2000/svg" width="25" height="25" viewBox="0 0 25 25">
  <defs>
    <style>
      .cls-1 {
        fill: #fff;
        fill-rule: evenodd;
      }
    </style>
  </defs>
  <path id="credits" class="cls-1" d="M4363.5,2196.99a12.5,12.5,0,1,0,12.5,12.5A12.5,12.5,0,0,0,4363.5,2196.99Zm2.6,19.38c-0.64.25-1.15,0.44-1.54,0.58a4.134,4.134,0,0,1-1.33.2,2.664,2.664,0,0,1-1.82-.57,1.864,1.864,0,0,1-.65-1.45,5.625,5.625,0,0,1,.05-0.7,8.056,8.056,0,0,1,.16-0.8l0.8-2.85c0.07-.27.14-0.53,0.18-0.77a3.379,3.379,0,0,0,.08-0.67,1.029,1.029,0,0,0-.23-0.76,1.279,1.279,0,0,0-.86-0.21,2.409,2.409,0,0,0-.64.09c-0.22.07-.4,0.13-0.56,0.19l0.21-.88c0.53-.21,1.04-0.39,1.52-0.55a4.563,4.563,0,0,1,1.36-.23,2.611,2.611,0,0,1,1.79.56,1.871,1.871,0,0,1,.63,1.46c0,0.12-.01.34-0.04,0.65a4.381,4.381,0,0,1-.16.86l-0.8,2.84a5.68,5.68,0,0,0-.18.78,4.379,4.379,0,0,0-.08.66,0.963,0.963,0,0,0,.26.77,1.443,1.443,0,0,0,.87.2,2.354,2.354,0,0,0,.66-0.1,4.131,4.131,0,0,0,.54-0.18Zm-0.14-11.52a1.984,1.984,0,0,1-2.7,0,1.624,1.624,0,0,1-.57-1.26,1.654,1.654,0,0,1,.57-1.26,1.984,1.984,0,0,1,2.7,0,1.644,1.644,0,0,1,.56,1.26A1.615,1.615,0,0,1,4365.96,2204.85Z" transform="translate(-4351 -2197)"/>
</svg>
