<svg xmlns="http://www.w3.org/2000/svg" width="128" height="116" viewBox="0 0 128 116">
  <defs>
    <style>
      .cls-1 {
        fill: #fff;
        fill-rule: evenodd;
      }
    </style>
  </defs>
  <path id="mail" class="cls-1" d="M6027.2,2155.59c-1.86,2.22-3.7,3.4-5.3,3.4h0c-1.14,0-3.79-.64-3.79-6.61V2124.8l23.19,14.01Zm79.31-106.69-19.31,53.06-15.01,41.26a4.766,4.766,0,0,1-7.23,2.5l-32.28-19.5-9.69-5.85,56.42-53.7-65.13,48.44-31.29-18.91c-5.7-3.44-5.23-8.12,1.06-10.39l51.28-18.53,65.67-23.73C6105.72,2041.85,6108.19,2044.26,6106.51,2048.9Z" transform="translate(-5979 -2043)"/>
</svg>
